<?xml version="1.0" encoding="utf-8"?>
<!-- Generator: Adobe Illustrator 16.0.0, SVG Export Plug-In . SVG Version: 6.00 Build 0)  -->
<!DOCTYPE svg PUBLIC "-//W3C//DTD SVG 1.1//EN" "http://www.w3.org/Graphics/SVG/1.1/DTD/svg11.dtd">
<svg version="1.1" id="Layer_1" xmlns="http://www.w3.org/2000/svg" xmlns:xlink="http://www.w3.org/1999/xlink" x="0px" y="0px"
	 width="576px" height="410px" viewBox="0 0 576 410" enable-background="new 0 0 576 410" xml:space="preserve">
<path fill-rule="evenodd" clip-rule="evenodd" d="M527.521,299.83c-57.703-83.662-136.889-130.46-239.766-130.332
	c-102.78,0.127-181.755,47.102-239.107,130.491c20.789-97.878,115.107-190.654,242.368-189.039
	C420.94,112.6,508.906,209.631,527.521,299.83z"/>
<path fill-rule="evenodd" clip-rule="evenodd" d="M201.548,102.444l54.445,6.815l-17.063,10.478
	c15.875-3.073,32.177-4.688,48.812-4.688c1.115,0,2.228,0.008,3.347,0.022c16.037,0.203,31.059,1.817,45.108,4.467l-16.471-10.168
	l54.624-6.862l-54.528-4.536l23.506-14.433l-27.521,4.018l0.035-0.045l38.318-40.551l-45.028,31.717l-0.521,0.281l8.807-26.38
	l-18.457,20.717l4.026-55.906l-14.5,52.473l-0.607,1.522l-0.436-1.103l-14.469-52.903l3.887,55.259l-0.021,0.678l-18.448-20.813
	l8.738,26.408l-0.521-0.283l-44.831-31.716l37.785,40.129l0.35,0.443L232.403,83.4l23.666,14.614l-0.232,0.048L201.548,102.444z"/>
<g>
	<path d="M60.136,315.836c-0.082-0.271-0.209-0.58-0.387-0.943c-0.33-0.794-0.813-1.571-1.437-2.312
		c-0.683-0.827-1.648-1.548-2.858-2.126c-0.708-0.325-1.448-0.568-2.229-0.736c-0.791-0.176-1.678-0.263-2.698-0.263
		c-1.833,0-3.475,0.328-4.881,0.978c-1.15,0.501-2.09,1.187-2.794,2.037c-0.604,0.718-1.096,1.454-1.453,2.179l-0.039,0.079
		l-0.023,0.061c-0.085,0.205-0.158,0.396-0.222,0.562l-0.075,0.195l-0.012,0.031l-0.13,0.331l-29.757,78.938l-1.058,2.806h2.999
		h10.63h1.457l0.495-1.37l8.608-23.855h30.905l8.314,23.835l0.485,1.391h1.474h11.42h2.96l-1.01-2.782L60.136,315.836z
		 M38.768,359.967l11.29-31.066l10.804,31.066H38.768z"/>
	<path d="M143.693,317.143c-2.432-2.212-5.274-3.915-8.446-5.062c-3.111-1.093-6.693-1.644-10.664-1.644h-24.43h-2.075v2.074v83.066
		v2.074h2.075h10.383h2.075v-2.074v-33.472h12.036c4.402,0,8.299-0.666,11.582-1.979c3.394-1.297,6.215-3.299,8.355-5.938
		c2.159-2.539,3.805-5.371,4.862-8.378c1.053-3.01,1.586-6.281,1.586-9.727c0-3.99-0.601-7.604-1.784-10.744
		C148.033,322.144,146.165,319.387,143.693,317.143z M112.61,323.316h8.248c4.105,0,7.339,0.55,9.613,1.633
		c4.013,1.92,5.966,5.583,5.966,11.199c0,5.011-1.321,8.345-4.04,10.193c-2.904,1.997-6.783,3.007-11.539,3.007h-8.248V323.316z"/>
	<path d="M233.599,323.857c-3.588-4.847-8.214-8.485-13.75-10.815c-5.467-2.377-11.951-3.587-19.25-3.587
		c-7.047,0-13.35,1.302-18.733,3.871c-2.708,1.349-5.208,3.019-7.46,4.979c-2.261,1.959-4.318,4.254-6.11,6.818
		c-2.771,4.01-4.901,8.483-6.337,13.305c-1.396,4.814-2.103,10.104-2.103,15.736c0,6.224,0.836,11.967,2.484,17.07
		c1.568,5.094,4.053,9.805,7.379,13.973l0.024,0.03l0.025,0.029c3.735,4.34,8.208,7.611,13.295,9.725
		c2.567,1.069,5.333,1.874,8.221,2.391c2.865,0.506,5.915,0.762,9.069,0.762c6.861,0,13.049-1.232,18.391-3.663
		c2.679-1.215,5.183-2.761,7.441-4.592c2.259-1.827,4.356-3.987,6.231-6.421c3.197-4.211,5.61-8.95,7.182-14.1
		c0.798-2.552,1.399-5.308,1.785-8.176c0.375-2.832,0.565-5.811,0.565-8.858c0-5.653-0.685-10.94-2.034-15.713
		C238.501,331.907,236.38,327.624,233.599,323.857z M227.598,352.521c0,8.678-2.094,16.447-6.224,23.094
		c-4.068,6.533-10.505,9.711-19.677,9.711c-9.778,0-16.604-2.821-20.867-8.624c-4.314-5.876-6.501-13.212-6.501-21.802
		c0-10.809,2.528-19.029,7.514-24.435c5.054-5.509,11.406-8.186,19.425-8.186c8.199,0,14.5,2.682,19.262,8.198
		C225.214,336.038,227.598,343.461,227.598,352.521z"/>
	<path d="M283.82,351.667l-2.077-0.003v2.077v9.521v2.074h2.075h33.141c-1.038,3.704-2.563,7.218-4.552,10.475
		c-4.099,6.514-10.559,9.691-19.733,9.691c-9.817,0-16.663-2.82-20.929-8.621c-4.311-5.913-6.5-13.29-6.5-21.919
		c0-10.813,2.529-19.058,7.517-24.503c5.046-5.462,11.402-8.12,19.423-8.12c8.278,0,14.596,2.68,19.312,8.191
		c1.962,2.266,3.483,4.773,4.528,7.466l0.514,1.323h1.42h10.998h2.781l-0.793-2.665c-1.408-4.736-3.531-9.024-6.312-12.747
		c-3.579-4.787-8.194-8.439-13.717-10.854c-5.541-2.39-12.046-3.599-19.344-3.599c-6.996,0-13.317,1.32-18.787,3.926
		c-5.404,2.639-9.965,6.586-13.574,11.74c-1.412,2.057-2.649,4.21-3.69,6.418c-1.029,2.177-1.92,4.515-2.646,6.947
		c-1.435,4.721-2.164,10.019-2.164,15.738c0,3.11,0.202,6.127,0.599,8.967c0.402,2.878,1.037,5.633,1.888,8.187
		c1.696,5.296,4.203,10.022,7.442,14.026l0.027,0.034l0.029,0.033c3.816,4.329,8.281,7.592,13.271,9.698
		c5.119,2.139,10.957,3.221,17.36,3.221c6.862,0,13.07-1.234,18.451-3.67c5.309-2.459,9.905-6.203,13.678-11.136
		c3.234-4.128,5.656-8.882,7.184-14.111c1.471-4.788,2.283-10.055,2.408-15.626l0.047-2.118l-2.118-0.002L283.82,351.667z"/>
	<path d="M389.781,315.847c-0.078-0.267-0.201-0.568-0.388-0.951c-0.327-0.787-0.809-1.564-1.434-2.311
		c-0.687-0.832-1.653-1.553-2.864-2.132c-0.702-0.323-1.443-0.566-2.229-0.735c-0.778-0.174-1.691-0.263-2.697-0.263
		c-1.835,0-3.478,0.329-4.883,0.978c-1.15,0.503-2.09,1.188-2.792,2.038c-0.617,0.737-1.094,1.452-1.452,2.176l-0.039,0.079
		l-0.023,0.059c-0.062,0.146-0.115,0.285-0.165,0.413l-0.057,0.145l-0.014,0.035l-0.013,0.035l-0.043,0.113l-0.149,0.381
		l-29.757,78.94l-1.058,2.806h2.999h10.63h1.457l0.494-1.37l8.607-23.855h30.911l8.309,23.834l0.485,1.392h1.474h11.423h2.96
		l-1.01-2.782L389.781,315.847z M368.41,359.967l11.289-31.067l10.809,31.067H368.41z"/>
	<polygon points="441.944,384.529 441.944,359.109 473.896,359.109 475.97,359.109 475.97,357.035 475.97,348.305 475.97,346.23 
		473.896,346.23 441.944,346.23 441.944,323.745 477.684,323.745 479.758,323.745 479.758,321.671 479.758,312.448 479.758,310.374 
		477.684,310.374 429.792,310.374 427.718,310.374 427.718,312.448 427.718,395.578 427.718,397.652 429.792,397.652 
		478.537,397.652 480.611,397.652 480.611,395.578 480.611,386.604 480.611,384.529 478.537,384.529 	"/>
	<path d="M564.805,394.87l-28.679-79.017c-0.076-0.264-0.195-0.556-0.39-0.957c-0.328-0.787-0.809-1.563-1.431-2.309
		c-0.693-0.837-1.66-1.558-2.869-2.135c-0.7-0.323-1.441-0.566-2.229-0.735c-0.786-0.176-1.675-0.263-2.697-0.263
		c-1.833,0-3.476,0.329-4.88,0.978c-1.158,0.506-2.099,1.193-2.797,2.043c-0.6,0.713-1.093,1.448-1.45,2.168l-0.041,0.083
		l-0.027,0.07c-0.042,0.102-0.08,0.2-0.116,0.293c-0.031,0.079-0.06,0.153-0.089,0.222l-0.021,0.05l-0.018,0.051
		c-0.038,0.104-0.083,0.22-0.132,0.347l-0.062,0.16l-29.754,78.928l-1.058,2.806h2.999h10.63h1.457l0.494-1.37l8.609-23.855h30.908
		l8.312,23.835l0.485,1.391h1.474h11.42h2.96L564.805,394.87z M514.752,359.967l11.29-31.066l10.807,31.066H514.752z"/>
</g>
</svg>
